
<svg width="97" height="33" viewBox="0 0 97 33" fill="none" xmlns="http://www.w3.org/2000/svg">
    <path d="M8.126 14.27C7.46867 14.27 7.02667 14.576 6.8 15.188C6.57333 15.7773 6.46 16.7067 6.46 17.976C6.46 19.2453 6.562 20.1633 6.766 20.73C6.99267 21.2967 7.446 21.58 8.126 21.58C8.82867 21.58 9.73533 21.4553 10.846 21.206L11.458 25.558C9.894 26.0793 8.5 26.34 7.276 26.34C5.12267 26.34 3.49067 25.6147 2.38 24.164C1.292 22.7133 0.748 20.6847 0.748 18.078C0.748 15.4713 1.31467 13.3633 2.448 11.754C3.58133 10.122 5.22467 9.306 7.378 9.306C8.98733 9.306 10.438 9.578 11.73 10.122L11.118 15.12C9.80333 14.5533 8.806 14.27 8.126 14.27ZM11.8567 14.542C11.8567 12.8873 12.3554 11.6067 13.3527 10.7C14.3727 9.77067 15.7667 9.306 17.5347 9.306C19.3027 9.306 21.0934 9.53267 22.9067 9.986L22.3287 14.712C20.0167 14.1907 18.464 13.93 17.6707 13.93C17.1947 13.93 16.9567 14.1227 16.9567 14.508C16.9567 14.7573 17.2174 14.984 17.7387 15.188C19.552 15.8453 20.912 16.5933 21.8187 17.432C22.748 18.2707 23.2127 19.5287 23.2127 21.206C23.2127 22.8833 22.782 24.164 21.9207 25.048C21.0594 25.9093 19.7334 26.34 17.9427 26.34C16.1747 26.34 14.4067 26.1133 12.6387 25.66L13.0127 21.07C15.2794 21.682 16.7414 21.988 17.3987 21.988C18.0787 21.988 18.4187 21.8293 18.4187 21.512C18.4187 21.1947 18.1694 20.9453 17.6707 20.764C15.6534 19.9933 14.18 19.1773 13.2507 18.316C12.3214 17.432 11.8567 16.174 11.8567 14.542ZM23.4778 14.542C23.4778 12.8873 23.9765 11.6067 24.9738 10.7C25.9938 9.77067 27.3878 9.306 29.1558 9.306C30.9238 9.306 32.7145 9.53267 34.5278 9.986L33.9498 14.712C31.6378 14.1907 30.0851 13.93 29.2918 13.93C28.8158 13.93 28.5778 14.1227 28.5778 14.508C28.5778 14.7573 28.8385 14.984 29.3598 15.188C31.1731 15.8453 32.5331 16.5933 33.4398 17.432C34.3691 18.2707 34.8338 19.5287 34.8338 21.206C34.8338 22.8833 34.4031 24.164 33.5418 25.048C32.6805 25.9093 31.3545 26.34 29.5638 26.34C27.7958 26.34 26.0278 26.1133 24.2598 25.66L24.6338 21.07C26.9005 21.682 28.3625 21.988 29.0198 21.988C29.6998 21.988 30.0398 21.8293 30.0398 21.512C30.0398 21.1947 29.7905 20.9453 29.2918 20.764C27.2745 19.9933 25.8011 19.1773 24.8718 18.316C23.9425 17.432 23.4778 16.174 23.4778 14.542Z" fill="#ff006e"/>
    <path d="M40.9129 27.496H44.4149C44.8229 27.496 45.0269 27.3147 45.0269 26.952V26.816C45.0269 26.476 44.8229 26.306 44.4149 26.306H40.9129C40.5502 26.306 40.3689 26.4873 40.3689 26.85V26.986C40.3689 27.326 40.5502 27.496 40.9129 27.496ZM42.2729 9.306H50.2969V13.114H47.8489V13.284C48.5742 13.9187 48.9369 14.746 48.9369 15.766C48.9369 19.3927 46.8856 21.206 42.7829 21.206H41.1509C40.7429 21.206 40.5389 21.3987 40.5389 21.784C40.5389 22.1467 40.7316 22.328 41.1169 22.328H45.7409C48.3476 22.328 49.6509 23.4613 49.6509 25.728C49.6509 27.5867 49.0276 28.924 47.7809 29.74C46.5342 30.5787 44.8116 30.998 42.6129 30.998C40.4142 30.998 38.7482 30.76 37.6149 30.284C36.5042 29.8307 35.9489 28.9693 35.9489 27.7C35.9489 26.9973 36.3909 26.408 37.2749 25.932V25.796C36.1642 25.184 35.6089 24.3 35.6089 23.144C35.6089 21.784 36.4816 20.7527 38.2269 20.05C37.4109 19.4607 36.7989 18.7807 36.3909 18.01C36.0056 17.2167 35.8129 16.174 35.8129 14.882C35.8129 13.0913 36.3909 11.72 37.5469 10.768C38.7256 9.79333 40.3009 9.306 42.2729 9.306ZM43.7689 15.834C43.7689 15.1087 43.6782 14.5873 43.4969 14.27C43.3382 13.93 43.0322 13.76 42.5789 13.76C42.1256 13.76 41.8082 13.93 41.6269 14.27C41.4682 14.5873 41.3889 15.086 41.3889 15.766C41.3889 17.1487 41.7969 17.84 42.6129 17.84C43.3836 17.84 43.7689 17.1713 43.7689 15.834ZM56.9335 16.854V26H51.2895V9.714H56.2535L56.5935 10.7H56.7295C57.2509 10.1107 57.7722 9.73667 58.2935 9.578C58.8375 9.39667 59.7102 9.306 60.9115 9.306L60.6735 14.746H59.1095C58.2255 14.746 57.6362 14.882 57.3415 15.154C57.0695 15.426 56.9335 15.9927 56.9335 16.854ZM67.6937 26H62.0837V9.884H67.6937V26ZM62.5257 8.592C62.0497 8.184 61.8117 7.52667 61.8117 6.62C61.8117 5.71333 62.0497 5.04467 62.5257 4.614C63.0017 4.18333 63.7837 3.968 64.8717 3.968C65.9597 3.968 66.7417 4.18333 67.2177 4.614C67.6937 5.04467 67.9317 5.71333 67.9317 6.62C67.9317 7.504 67.6937 8.16133 67.2177 8.592C66.7417 9 65.9597 9.204 64.8717 9.204C63.7837 9.204 63.0017 9 62.5257 8.592ZM84.2661 26.204L81.9881 26.34C80.2427 26.34 79.1774 25.762 78.7921 24.606H78.6221C77.8741 25.762 76.7294 26.34 75.1881 26.34C73.1481 26.34 71.7087 25.626 70.8701 24.198C70.0541 22.77 69.6461 20.6507 69.6461 17.84C69.6461 15.0067 70.1107 12.876 71.0401 11.448C71.9694 10.02 73.3067 9.306 75.0521 9.306C76.2534 9.306 77.1827 9.58933 77.8401 10.156V4.206H83.5181V21.002C83.5181 21.4327 83.6087 21.7273 83.7901 21.886C83.9714 22.022 84.3001 22.09 84.7761 22.09L84.2661 26.204ZM76.5481 14.1C76.0721 14.1 75.7547 14.3947 75.5961 14.984C75.4374 15.5507 75.3581 16.378 75.3581 17.466C75.3581 18.5313 75.3694 19.2567 75.3921 19.642C75.4147 20.0273 75.4601 20.424 75.5281 20.832C75.6187 21.2173 75.7434 21.4893 75.9021 21.648C76.0834 21.784 76.3667 21.852 76.7521 21.852C77.1601 21.852 77.5794 21.75 78.0101 21.546V14.508C77.5341 14.236 77.0467 14.1 76.5481 14.1ZM85.1692 14.542C85.1692 12.8873 85.6679 11.6067 86.6652 10.7C87.6852 9.77067 89.0792 9.306 90.8472 9.306C92.6152 9.306 94.4059 9.53267 96.2192 9.986L95.6412 14.712C93.3292 14.1907 91.7765 13.93 90.9832 13.93C90.5072 13.93 90.2692 14.1227 90.2692 14.508C90.2692 14.7573 90.5299 14.984 91.0512 15.188C92.8645 15.8453 94.2245 16.5933 95.1312 17.432C96.0605 18.2707 96.5252 19.5287 96.5252 21.206C96.5252 22.8833 96.0945 24.164 95.2332 25.048C94.3719 25.9093 93.0459 26.34 91.2552 26.34C89.4872 26.34 87.7192 26.1133 85.9512 25.66L86.3252 21.07C88.5919 21.682 90.0539 21.988 90.7112 21.988C91.3912 21.988 91.7312 21.8293 91.7312 21.512C91.7312 21.1947 91.4819 20.9453 90.9832 20.764C88.9659 19.9933 87.4925 19.1773 86.5632 18.316C85.6339 17.432 85.1692 16.174 85.1692 14.542Z" fill="black"/>
</svg>
