
<svg width="23" height="23" viewBox="0 0 23 23" fill="none" xmlns="http://www.w3.org/2000/svg">
    <path d="M15.295 11.5007L22.4104 4.38537C23.1965 3.5992 23.1965 2.32462 22.4104 1.53967L21.4618 0.591104C20.6754 -0.195315 19.4008 -0.195315 18.6159 0.591104L11.5007 7.70622L4.38537 0.58963C3.5992 -0.196543 2.32462 -0.196543 1.53967 0.58963L0.58963 1.5382C-0.196543 2.32462 -0.196543 3.5992 0.58963 4.38415L7.70622 11.5007L0.591104 18.6159C-0.195315 19.4023 -0.195315 20.6769 0.591104 21.4618L1.53967 22.4104C2.32585 23.1965 3.60043 23.1965 4.38537 22.4104L11.5007 15.295L18.6159 22.4104C19.4023 23.1965 20.6769 23.1965 21.4618 22.4104L22.4104 21.4618C23.1965 20.6754 23.1965 19.4008 22.4104 18.6159L15.295 11.5007Z" fill="#696969"/>
</svg>
